<svg width="128" height="128" viewBox="0 0 128 128" fill="none" xmlns="http://www.w3.org/2000/svg">
<path fill-rule="evenodd" clip-rule="evenodd" d="M48.6531 125.759C48.6492 125.807 48.6585 125.808 48.6816 125.759H48.6531Z" fill="#0AD25D"/>
<path fill-rule="evenodd" clip-rule="evenodd" d="M48.6531 125.759C48.6492 125.807 48.6585 125.808 48.6816 125.759H48.6531Z" fill="url(#paint0_linear_15_45)"/>
<path d="M48.6531 125.759L43.3932 125.759L32.788 125.759L63.376 22.5883H51.4692L34.9033 70.5434L15.8228 125.759H0L21.1535 65.2549L0 1.70967e-05H16.9228L29.615 42.8459L45.4801 1.70967e-05H59.2722L63.4394 0H85.1747L110.502 0.234399L110.569 0H128V128H116.069V67.4062C116.069 63.3427 116.098 58.6816 116.154 53.423C116.267 48.1643 116.351 43.2045 116.408 38.5434L116.662 27.7871H116.323L86.7295 125.759L72.8528 125.759L74.0374 38.3641L48.6531 125.759ZM104.003 22.6662H85.1747V87.6638L104.003 22.6662Z" fill="#0AD25D"/>
<path d="M48.6531 125.759L43.3932 125.759L32.788 125.759L63.376 22.5883H51.4692L34.9033 70.5434L15.8228 125.759H0L21.1535 65.2549L0 1.70967e-05H16.9228L29.615 42.8459L45.4801 1.70967e-05H59.2722L63.4394 0H85.1747L110.502 0.234399L110.569 0H128V128H116.069V67.4062C116.069 63.3427 116.098 58.6816 116.154 53.423C116.267 48.1643 116.351 43.2045 116.408 38.5434L116.662 27.7871H116.323L86.7295 125.759L72.8528 125.759L74.0374 38.3641L48.6531 125.759ZM104.003 22.6662H85.1747V87.6638L104.003 22.6662Z" fill="url(#paint1_linear_15_45)"/>
<defs>
<linearGradient id="paint0_linear_15_45" x1="76.1528" y1="-64.7171" x2="76.1528" y2="172.818" gradientUnits="userSpaceOnUse">
<stop offset="0.456731" stop-color="#267630" stop-opacity="0"/>
<stop offset="0.697115" stop-color="#267630"/>
</linearGradient>
<linearGradient id="paint1_linear_15_45" x1="76.1528" y1="-64.7171" x2="76.1528" y2="172.818" gradientUnits="userSpaceOnUse">
<stop offset="0.456731" stop-color="#267630" stop-opacity="0"/>
<stop offset="0.697115" stop-color="#267630"/>
</linearGradient>
</defs>
</svg>
